<?xml version="1.0" encoding="utf-8"?>
<!-- Generator: Adobe Illustrator 23.0.3, SVG Export Plug-In . SVG Version: 6.00 Build 0)  -->
<svg version="1.1" id="Layer_1" xmlns="http://www.w3.org/2000/svg" xmlns:xlink="http://www.w3.org/1999/xlink" x="0px" y="0px"
	 viewBox="0 0 76 52" style="enable-background:new 0 0 76 52;" xml:space="preserve">
<path d="M32,26c0,1.1-0.9,2-2,2H12c-1.1,0-2-0.9-2-2s0.9-2,2-2h18C31.1,24,32,24.9,32,26z M26,38H12c-1.1,0-2,0.9-2,2s0.9,2,2,2h14
	c1.1,0,2-0.9,2-2S27.1,38,26,38z M30,10H12c-1.1,0-2,0.9-2,2s0.9,2,2,2h18c1.1,0,2-0.9,2-2S31.1,10,30,10z M76,2v48c0,1.1-0.9,2-2,2
	H2c-1.1,0-2-0.9-2-2V2c0-1.1,0.9-2,2-2h72C75.1,0,76,0.9,76,2z M72,4H4v44h68V4z M65.9,40c0,1.1-0.9,2-2,2H36c-1.1,0-2-0.9-2-2
	c0-6.6,3.9-12.2,9.6-14.7c-1.9-1.9-3.2-4.5-3.2-7.3c0-5.3,4.4-10,9.5-10s9.5,4.7,9.5,10c0,2.8-1.2,5.4-3.2,7.3
	C61.9,27.8,65.9,33.4,65.9,40z M44.4,18c0,2.8,2.4,6,5.5,6s5.5-3.2,5.5-6s-2.4-6-5.5-6S44.4,15.2,44.4,18z M61.8,38
	c-0.9-5.7-5.9-10-11.8-10s-10.8,4.3-11.8,10H61.8z"/>
</svg>
